<?xml version="1.0" encoding="UTF-8" standalone="no"?>
<!-- Created with Inkscape (http://www.inkscape.org/) -->
<svg
   xmlns:dc="http://purl.org/dc/elements/1.1/"
   xmlns:cc="http://creativecommons.org/ns#"
   xmlns:rdf="http://www.w3.org/1999/02/22-rdf-syntax-ns#"
   xmlns:svg="http://www.w3.org/2000/svg"
   xmlns="http://www.w3.org/2000/svg"
   xmlns:xlink="http://www.w3.org/1999/xlink"
   xmlns:sodipodi="http://sodipodi.sourceforge.net/DTD/sodipodi-0.dtd"
   xmlns:inkscape="http://www.inkscape.org/namespaces/inkscape"
   width="604.74774"
   height="705.63751"
   id="svg5114"
   sodipodi:version="0.32"
   inkscape:version="0.46"
   sodipodi:docname="jsVortex3.svg"
   inkscape:output_extension="org.inkscape.output.svg.inkscape"
   version="1.0"
   inkscape:export-filename="/home/acinom/af-arch/jsVortex/web/images/jsvortex-logo.png"
   inkscape:export-xdpi="8.1628313"
   inkscape:export-ydpi="8.1628313">
  <defs
     id="defs5116">
    <linearGradient
       inkscape:collect="always"
       id="linearGradient3290">
      <stop
         style="stop-color:#babdb6;stop-opacity:1;"
         offset="0"
         id="stop3292" />
      <stop
         style="stop-color:#babdb6;stop-opacity:0;"
         offset="1"
         id="stop3294" />
    </linearGradient>
    <linearGradient
       inkscape:collect="always"
       id="linearGradient5701">
      <stop
         style="stop-color:#2e3436;stop-opacity:1;"
         offset="0"
         id="stop5703" />
      <stop
         style="stop-color:#2e3436;stop-opacity:0;"
         offset="1"
         id="stop5705" />
    </linearGradient>
    <linearGradient
       inkscape:collect="always"
       id="linearGradient5691">
      <stop
         style="stop-color:#ffffff;stop-opacity:1;"
         offset="0"
         id="stop5693" />
      <stop
         style="stop-color:#ffffff;stop-opacity:0;"
         offset="1"
         id="stop5695" />
    </linearGradient>
    <inkscape:perspective
       sodipodi:type="inkscape:persp3d"
       inkscape:vp_x="0 : 526.18109 : 1"
       inkscape:vp_y="0 : 1000 : 0"
       inkscape:vp_z="744.09448 : 526.18109 : 1"
       inkscape:persp3d-origin="372.04724 : 350.78739 : 1"
       id="perspective5122" />
    <linearGradient
       inkscape:collect="always"
       xlink:href="#linearGradient5691"
       id="linearGradient5749"
       gradientUnits="userSpaceOnUse"
       gradientTransform="translate(1.7278389,5.1835166)"
       x1="150.9886"
       y1="119.82904"
       x2="307.88516"
       y2="395.3374" />
    <linearGradient
       inkscape:collect="always"
       xlink:href="#linearGradient5701"
       id="linearGradient5751"
       gradientUnits="userSpaceOnUse"
       gradientTransform="matrix(0.8589352,0,0,1,88.130342,0)"
       x1="624.75067"
       y1="713.19232"
       x2="489.97922"
       y2="570.90234" />
    <radialGradient
       inkscape:collect="always"
       xlink:href="#linearGradient3290"
       id="radialGradient3296"
       cx="312.27527"
       cy="636.32764"
       fx="312.27527"
       fy="636.32764"
       r="225.44753"
       gradientTransform="matrix(1,0,0,0.2060811,0,505.19255)"
       gradientUnits="userSpaceOnUse" />
  </defs>
  <sodipodi:namedview
     id="base"
     pagecolor="#ffffff"
     bordercolor="#666666"
     borderopacity="1.0"
     inkscape:pageopacity="0.0"
     inkscape:pageshadow="2"
     inkscape:zoom="0.65647207"
     inkscape:cx="389.18877"
     inkscape:cy="275.83436"
     inkscape:document-units="px"
     inkscape:current-layer="layer1"
     showgrid="false"
     showguides="true"
     inkscape:guide-bbox="true"
     inkscape:window-width="1280"
     inkscape:window-height="951"
     inkscape:window-x="0"
     inkscape:window-y="25" />
  <metadata
     id="metadata5119">
    <rdf:RDF>
      <cc:Work
         rdf:about="">
        <dc:format>image/svg+xml</dc:format>
        <dc:type
           rdf:resource="http://purl.org/dc/dcmitype/StillImage" />
      </cc:Work>
    </rdf:RDF>
  </metadata>
  <g
     inkscape:label="Capa 1"
     inkscape:groupmode="layer"
     id="layer1"
     transform="translate(-79.302579,-125.35785)">
    <g
       id="g3194"
       transform="translate(-20,0)">
      <path
         sodipodi:nodetypes="cccc"
         id="path3180"
         d="M 545.10877,358.12329 C 558.23689,259.42567 546.26763,169.52057 492.6744,125.35785 C 594.32203,183.76446 603.26665,291.99902 622.16684,403.44485 L 545.10877,358.12329 z"
         style="fill:#75507b;fill-rule:evenodd;stroke:none;stroke-width:1px;stroke-linecap:butt;stroke-linejoin:miter;stroke-opacity:1" />
      <path
         id="path3186"
         d="M 541.82181,175.6956 C 561.57348,222.72625 559.84152,275.69952 552.7091,325.41309 C 550.27188,341.36697 547.14517,357.25905 543.19393,372.86625 C 562.56508,387.40424 581.93624,401.94223 601.30739,416.48021 C 597.81248,353.69881 597.58862,288.71532 574.1561,229.58574 C 566.26522,209.85247 555.26852,191.40874 541.57416,175.10169 L 541.82181,175.6956 z"
         style="fill:#5c3566;fill-rule:evenodd;stroke:none;stroke-width:1px;stroke-linecap:butt;stroke-linejoin:miter;stroke-opacity:1" />
    </g>
    <g
       id="g3208">
      <path
         sodipodi:nodetypes="cccc"
         transform="translate(151.36574,216.29156)"
         id="path3178"
         d="M 362.84616,396.99613 C 364.47124,435.76759 383.39092,496.13542 276.45422,614.70383 C 428.7976,497.28405 467.41731,437.88287 475.15569,301.96499 L 362.84616,396.99613 z"
         style="fill:#cc0000;fill-rule:evenodd;stroke:none;stroke-width:1px;stroke-linecap:butt;stroke-linejoin:miter;stroke-opacity:1" />
      <path
         id="path3198"
         d="M 526.26826,593.11396 C 534.61547,628.89687 536.96652,667.09922 525.44754,702.37779 C 519.75755,722.33534 511.54142,741.5111 501.83672,759.86521 C 543.72225,715.19024 583.87425,665.75729 600.74853,605.93954 C 610.02197,572.48006 612.33156,537.30003 611.06571,502.58699 C 582.79989,532.76264 554.53408,562.93831 526.26826,593.11396 z"
         style="fill:#a40000;fill-rule:evenodd;stroke:none;stroke-width:1px;stroke-linecap:butt;stroke-linejoin:miter;stroke-opacity:1" />
    </g>
    <g
       id="g3258">
      <path
         sodipodi:nodetypes="cccc"
         id="path3182"
         d="M 214.8976,434.93957 C 179.87427,475.08305 75.893441,592.07957 233.2241,794.13894 C 137.29361,626.97874 196.26676,560.82643 279.65123,488.6973 L 214.8976,434.93957 z"
         style="fill:#73d216;fill-rule:evenodd;stroke:none;stroke-width:1px;stroke-linecap:butt;stroke-linejoin:miter;stroke-opacity:1" />
      <path
         id="path3248"
         d="M 214.01975,438.00398 C 176.83696,479.89665 152.48046,535.6032 156.9865,592.50215 C 158.99607,626.14495 168.85576,658.79722 183.01975,689.25398 C 172.30591,649.58452 172.09748,605.24009 191.26975,568.16023 C 208.69185,532.62551 237.74235,504.70138 267.20725,478.94148 C 250.03017,464.68106 232.85308,450.42065 215.676,436.16023 C 215.12392,436.77481 214.57183,437.3894 214.01975,438.00398 z"
         style="fill:#4e9a06;fill-rule:evenodd;stroke:none;stroke-width:1px;stroke-linecap:butt;stroke-linejoin:miter;stroke-opacity:1" />
    </g>
    <g
       id="g3234">
      <path
         sodipodi:nodetypes="cccc"
         id="path2404"
         d="M 79.302579,306.95414 C 83.663894,421.90707 79.91098,446.77727 158.78317,583.40836 L 309.10515,619.69298 C 169.52965,530.20839 89.395311,423.98939 79.302579,306.95414 z"
         style="fill:#2e3436;fill-rule:evenodd;stroke:none;stroke-width:1px;stroke-linecap:butt;stroke-linejoin:miter;stroke-opacity:1" />
      <path
         id="path3228"
         d="M 90.717579,399.98496 C 98.326257,439.38576 110.87408,478.16822 132.63002,511.91901 C 151.64382,543.26617 174.19799,572.38827 196.82851,601.27386 C 239.82641,605.17456 283.7534,609.36962 326.17214,613.09841 C 249.39575,575.79311 176.2554,526.31112 125.05447,456.96827 C 111.45741,438.22315 99.53515,418.16769 90.125316,397.00802 C 90.322733,398.00035 90.520162,398.99265 90.717579,399.98496 z"
         style="fill:#555753;fill-rule:evenodd;stroke:none;stroke-width:1px;stroke-linecap:butt;stroke-linejoin:miter;stroke-opacity:1" />
    </g>
    <g
       id="g3224">
      <path
         sodipodi:nodetypes="cccc"
         id="path3184"
         d="M 482.72973,325.5059 C 457.97045,278.33483 386.50014,139.07898 141.2174,212.68134 C 331.75699,183.70094 372.10264,262.60713 409.19176,366.43381 L 482.72973,325.5059 z"
         style="fill:#c17d11;fill-rule:evenodd;stroke:none;stroke-width:1px;stroke-linecap:butt;stroke-linejoin:miter;stroke-opacity:1" />
      <path
         id="path3212"
         d="M 272.70269,197.67132 C 258.572,197.18636 244.41358,197.45551 230.31791,198.56905 C 274.27488,201.92129 319.85554,215.65128 351.07295,248.0205 C 382.28672,279.90311 398.02582,323.04353 410.48472,365.19548 C 431.84891,354.70556 453.2131,344.21564 474.57729,333.72573 C 451.84205,282.04667 412.32409,235.83121 358.65564,215.27581 C 331.46197,204.17036 302.08126,198.86632 272.70269,197.67132 z"
         style="fill:#8f5902;fill-rule:evenodd;stroke:none;stroke-width:1px;stroke-linecap:butt;stroke-linejoin:miter;stroke-opacity:1" />
    </g>
    <g
       id="g3244">
      <path
         sodipodi:nodetypes="cccc"
         id="path2406"
         d="M 555.16986,281.8877 C 611.48333,329.67348 672.22861,400.52348 684.0503,590.48071 C 654.10601,431.88732 599.42312,359.92243 539.42464,311.75926 L 555.16986,281.8877 z"
         style="fill:#204a87;fill-rule:evenodd;stroke:none;stroke-width:1px;stroke-linecap:butt;stroke-linejoin:miter;stroke-opacity:1" />
      <path
         id="path3238"
         d="M 498.14647,278.70761 C 559.03875,312.43394 606.57643,366.73 639.48225,427.57781 C 647.30191,441.53133 654.44445,455.93762 661.11401,470.50008 C 640.57941,405.13568 609.83438,340.60734 558.68604,293.54494 C 542.61167,278.74615 524.65283,265.74588 506.11436,254.53233 C 503.45839,262.59075 500.80245,270.64918 498.14647,278.70761 z"
         style="fill:#3465a4;fill-rule:evenodd;stroke:none;stroke-width:1px;stroke-linecap:butt;stroke-linejoin:miter;stroke-opacity:1" />
    </g>
    <g
       id="g5731"
       transform="translate(7.5050102,-8.3569645)">
      <path
         sodipodi:nodetypes="cccc"
         id="path5657"
         d="M 351.50893,377.91749 C 378.18363,375.19501 418.60819,473.01459 370.40658,569.13145 L 487.96126,525.96213 C 488.33109,413.21477 377.26419,373.76708 351.50893,377.91749 z"
         style="fill:#c17d11;fill-opacity:1;fill-rule:evenodd;stroke:none;stroke-width:0.66895664px;stroke-linecap:butt;stroke-linejoin:miter;stroke-opacity:1" />
      <path
         sodipodi:nodetypes="cccc"
         id="path5649"
         d="M 430.80546,628.77025 C 389.35429,642.69079 289.8853,501.62806 332.00112,331.41105 L 160.53368,442.3411 C 200.48016,621.81492 391.33016,644.63155 430.80546,628.77025 z"
         style="fill:#fce94f;fill-opacity:1;fill-rule:evenodd;stroke:none;stroke-width:1.09091222px;stroke-linecap:butt;stroke-linejoin:miter;stroke-opacity:1" />
      <path
         sodipodi:nodetypes="cccc"
         id="path5659"
         d="M 376.83151,389.94398 C 448.38716,419.2606 453.5556,484.08911 405.66988,566.52997 L 473.11462,539.03553 C 479.88896,459.78451 449.29575,419.20009 376.83151,389.94398 z"
         style="fill:#8f5902;fill-opacity:1;fill-rule:evenodd;stroke:none;stroke-width:0.66895664px;stroke-linecap:butt;stroke-linejoin:miter;stroke-opacity:1" />
      <path
         sodipodi:nodetypes="cccc"
         id="path5645"
         d="M 193.31061,569.47774 C 173.87421,530.30878 300.07494,412.55417 474.44191,431.09426 L 341.19197,276.33312 C 168.8312,340.3514 172.22064,532.53057 193.31061,569.47774 z"
         style="fill:#73d216;fill-opacity:1;fill-rule:evenodd;stroke:none;stroke-width:1.09091222px;stroke-linecap:butt;stroke-linejoin:miter;stroke-opacity:1" />
      <path
         sodipodi:nodetypes="cccc"
         id="path5651"
         d="M 386.20252,618.74432 C 261.84313,597.83758 230.31494,496.57669 276.84505,348.22688 L 179.44928,416.20835 C 197.1659,544.70397 260.41964,598.26049 386.20252,618.74432 z"
         style="fill:#c4a000;fill-opacity:1;fill-rule:evenodd;stroke:none;stroke-width:1.09091222px;stroke-linecap:butt;stroke-linejoin:miter;stroke-opacity:1" />
      <path
         sodipodi:nodetypes="cccc"
         id="path5653"
         d="M 521.66351,392.15607 C 534.34596,434.00265 390.38929,529.23526 221.49917,482.07914 L 327.28414,656.76771 C 507.8659,622.17291 536.34459,432.08533 521.66351,392.15607 z"
         style="fill:#75507b;fill-opacity:1;fill-rule:evenodd;stroke:none;stroke-width:1.09091222px;stroke-linecap:butt;stroke-linejoin:miter;stroke-opacity:1" />
      <path
         sodipodi:nodetypes="cccc"
         id="path5647"
         d="M 197.16827,523.92491 C 200.94265,397.87689 296.96586,352.85093 450.27061,378.74245 L 369.65747,291.51322 C 244.7722,326.56564 200.3298,396.52427 197.16827,523.92491 z"
         style="fill:#4e9a06;fill-opacity:1;fill-rule:evenodd;stroke:none;stroke-width:1.09091222px;stroke-linecap:butt;stroke-linejoin:miter;stroke-opacity:1" />
      <path
         sodipodi:nodetypes="cccc"
         id="path5655"
         d="M 510.3164,436.44133 C 485.72289,560.12443 383.5697,588.62918 236.66831,537.71061 L 301.72511,637.0838 C 430.69051,623.19394 486.1033,561.55986 510.3164,436.44133 z"
         style="fill:#5c3566;fill-opacity:1;fill-rule:evenodd;stroke:none;stroke-width:1.09091222px;stroke-linecap:butt;stroke-linejoin:miter;stroke-opacity:1" />
      <path
         sodipodi:nodetypes="cccc"
         id="path5641"
         d="M 268.74604,315.83028 C 298.78516,284.05556 452.89674,361.7884 495.7555,531.81987 L 594.93439,353.29787 C 475.29684,213.67899 296.12882,283.27167 268.74604,315.83028 z"
         style="fill:#cc0000;fill-opacity:1;fill-rule:evenodd;stroke:none;stroke-width:1.09091222px;stroke-linecap:butt;stroke-linejoin:miter;stroke-opacity:1" />
      <path
         sodipodi:nodetypes="ccccc"
         id="path5128"
         d="M 561.42857,302.36218 C 351.32858,106.37206 77.063469,309.20716 158.57143,598.07647 L 282.85715,613.79075 C 110.25581,211.07122 509.4206,230.78685 571.42857,338.07647 L 561.42857,302.36218 z"
         style="fill:#204a87;fill-opacity:1;fill-rule:evenodd;stroke:none;stroke-width:1px;stroke-linecap:butt;stroke-linejoin:miter;stroke-opacity:1" />
      <path
         sodipodi:nodetypes="cccc"
         id="path5643"
         d="M 307.77478,301.68811 C 427.36152,261.67109 502.79659,336.21868 531.47828,489.02601 L 585.47568,383.2352 C 509.42574,278.15709 428.41902,260.62856 307.77478,301.68811 z"
         style="fill:#a40000;fill-opacity:1;fill-rule:evenodd;stroke:none;stroke-width:1.09091222px;stroke-linecap:butt;stroke-linejoin:miter;stroke-opacity:1" />
      <path
         sodipodi:nodetypes="cccc"
         id="path5639"
         d="M 177.78684,609.91537 C 135.24115,406.53497 201.98282,261.5366 349.51278,247.2706 C 203.91819,261.69948 201.66598,423.73505 256.57875,607.89506 L 177.78684,609.91537 z"
         style="fill:#3465a4;fill-opacity:0.75;fill-rule:evenodd;stroke:none;stroke-width:1px;stroke-linecap:butt;stroke-linejoin:miter;stroke-opacity:1" />
      <path
         sodipodi:nodetypes="ccc"
         id="path5124"
         d="M 148.74752,588.51155 C 481.89867,943.36545 774.36081,500.50421 558.34285,295.14206 C 582.30326,504.05111 351.46136,632.83822 148.74752,588.51155 z"
         style="fill:#2e3436;fill-opacity:1;fill-rule:evenodd;stroke:none;stroke-width:1px;stroke-linecap:butt;stroke-linejoin:miter;stroke-opacity:1" />
      <path
         sodipodi:nodetypes="cccc"
         id="path5665"
         d="M 567.60068,313.79075 C 673.73781,464.05788 454.17288,625.21225 305.01978,686.93962 C 354.9411,709.46188 429.47013,729.0799 501.95546,689.72431 C 589.83379,595.05994 674.38903,464.064 567.60068,313.79075 z"
         style="fill:#555753;fill-opacity:0.75;fill-rule:evenodd;stroke:none;stroke-width:1px;stroke-linecap:butt;stroke-linejoin:miter;stroke-opacity:1" />
      <path
         sodipodi:nodetypes="ccc"
         id="path5689"
         d="M 153.2269,529.74254 C 124.86427,328.36681 323.37221,141.56736 524.64394,280.50216 C 353.90369,266.79115 235.58811,340.41584 153.2269,529.74254 z"
         style="opacity:0.81784387;fill:url(#linearGradient5749);fill-opacity:1;fill-rule:evenodd;stroke:none;stroke-width:1px;stroke-linecap:butt;stroke-linejoin:miter;stroke-opacity:1" />
      <path
         sodipodi:nodetypes="ccc"
         id="path5699"
         d="M 319.65019,684.3325 C 488.21601,679.27499 605.04875,582.35275 623.89102,428.61235 C 636.86117,600.78341 501.56586,785.69091 319.65019,684.3325 z"
         style="fill:url(#linearGradient5751);fill-opacity:1;fill-rule:evenodd;stroke:none;stroke-width:1px;stroke-linecap:butt;stroke-linejoin:miter;stroke-opacity:1" />
    </g>
    <path
       sodipodi:type="arc"
       style="opacity:1;fill:url(#radialGradient3296);fill-opacity:1;stroke:none;stroke-width:4;stroke-linecap:round;stroke-linejoin:round;stroke-miterlimit:4;stroke-dasharray:none;stroke-opacity:1"
       id="path3262"
       sodipodi:cx="312.27527"
       sodipodi:cy="636.32764"
       sodipodi:rx="225.44753"
       sodipodi:ry="46.460468"
       d="M 537.72279,636.32764 A 225.44753,46.460468 0 1 1 86.827744,636.32764 A 225.44753,46.460468 0 1 1 537.72279,636.32764 z"
       transform="translate(77.779285,154.30044)" />
  </g>
</svg>
