<?xml version="1.0" encoding="UTF-8" standalone="no"?>
<!-- Created with Inkscape (http://www.inkscape.org/) -->
<svg
   xmlns:dc="http://purl.org/dc/elements/1.1/"
   xmlns:cc="http://creativecommons.org/ns#"
   xmlns:rdf="http://www.w3.org/1999/02/22-rdf-syntax-ns#"
   xmlns:svg="http://www.w3.org/2000/svg"
   xmlns="http://www.w3.org/2000/svg"
   xmlns:xlink="http://www.w3.org/1999/xlink"
   xmlns:sodipodi="http://sodipodi.sourceforge.net/DTD/sodipodi-0.dtd"
   xmlns:inkscape="http://www.inkscape.org/namespaces/inkscape"
   id="svg4211"
   sodipodi:version="0.32"
   inkscape:version="0.46"
   width="885.83002"
   height="255.87044"
   version="1.0"
   sodipodi:docname="jsVortex2.svg"
   inkscape:output_extension="org.inkscape.output.svg.inkscape"
   inkscape:export-filename="/home/acinom/af-arch/jsVortex/web/jsvortex-header-logo.png"
   inkscape:export-xdpi="36"
   inkscape:export-ydpi="36">
  <metadata
     id="metadata4216">
    <rdf:RDF>
      <cc:Work
         rdf:about="">
        <dc:format>image/svg+xml</dc:format>
        <dc:type
           rdf:resource="http://purl.org/dc/dcmitype/StillImage" />
      </cc:Work>
    </rdf:RDF>
  </metadata>
  <defs
     id="defs4214">
    <linearGradient
       inkscape:collect="always"
       id="linearGradient4917">
      <stop
         style="stop-color:#ffffff;stop-opacity:1;"
         offset="0"
         id="stop4919" />
      <stop
         style="stop-color:#ffffff;stop-opacity:0;"
         offset="1"
         id="stop4921" />
    </linearGradient>
    <linearGradient
       id="linearGradient4844">
      <stop
         style="stop-color:#000000;stop-opacity:1;"
         offset="0"
         id="stop4846" />
      <stop
         style="stop-color:#ffffff;stop-opacity:1;"
         offset="1"
         id="stop4848" />
    </linearGradient>
    <linearGradient
       inkscape:collect="always"
       id="linearGradient4791">
      <stop
         style="stop-color:#ffffff;stop-opacity:1;"
         offset="0"
         id="stop4793" />
      <stop
         style="stop-color:#ffffff;stop-opacity:0;"
         offset="1"
         id="stop4795" />
    </linearGradient>
    <inkscape:perspective
       sodipodi:type="inkscape:persp3d"
       inkscape:vp_x="0 : 526.18109 : 1"
       inkscape:vp_y="0 : 1000 : 0"
       inkscape:vp_z="744.09448 : 526.18109 : 1"
       inkscape:persp3d-origin="372.04724 : 350.78739 : 1"
       id="perspective4218" />
    <filter
       inkscape:collect="always"
       id="filter4807">
      <feGaussianBlur
         inkscape:collect="always"
         stdDeviation="1.5588139"
         id="feGaussianBlur4809" />
    </filter>
    <linearGradient
       inkscape:collect="always"
       xlink:href="#linearGradient4844"
       id="linearGradient4850"
       x1="116.59918"
       y1="279.33926"
       x2="114.97975"
       y2="28.335011"
       gradientUnits="userSpaceOnUse"
       gradientTransform="matrix(1.1417273,0,0,1.1417273,478.7868,-193.80281)" />
    <linearGradient
       inkscape:collect="always"
       xlink:href="#linearGradient4791"
       id="linearGradient4855"
       gradientUnits="userSpaceOnUse"
       x1="72.142067"
       y1="-9.5395012"
       x2="160.88826"
       y2="134.74463"
       gradientTransform="matrix(0.9494341,0,0,0.9494341,-6.6210686,-22.200558)" />
    <linearGradient
       inkscape:collect="always"
       xlink:href="#linearGradient4917"
       id="linearGradient4923"
       x1="534.79523"
       y1="-145.56784"
       x2="534.79523"
       y2="372.65079"
       gradientUnits="userSpaceOnUse" />
  </defs>
  <sodipodi:namedview
     inkscape:window-height="825"
     inkscape:window-width="1440"
     inkscape:pageshadow="2"
     inkscape:pageopacity="0.0"
     guidetolerance="10.0"
     gridtolerance="10.0"
     objecttolerance="10.0"
     borderopacity="1.0"
     bordercolor="#666666"
     pagecolor="#ffffff"
     id="base"
     showgrid="false"
     inkscape:zoom="0.6175"
     inkscape:cx="405.87802"
     inkscape:cy="-74.38778"
     inkscape:window-x="0"
     inkscape:window-y="25"
     inkscape:current-layer="svg4211" />
  <rect
     style="opacity:1;fill:#062149;fill-opacity:1;stroke:none;stroke-width:3;stroke-miterlimit:4;stroke-dasharray:none;stroke-opacity:1"
     id="rect4893"
     width="885.83002"
     height="255.87044"
     x="0"
     y="0"
     rx="0"
     ry="0" />
  <g
     id="g4757"
     transform="matrix(0.9494341,0,0,0.9494341,247.38724,-238.67457)"
     style="opacity:1;fill:none;fill-opacity:1;stroke:#ffffff;stroke-width:4.21303606;stroke-miterlimit:4;stroke-dasharray:none;stroke-opacity:1">
    <path
       sodipodi:nodetypes="cccc"
       id="path4745"
       d="M -248.82875,331.33216 C -187.34098,237.13155 -105.79624,219.16207 -59.355077,387.20261 C -101.4176,294.85586 -132.27448,242.32258 -214.01095,375.86658 C -153.04181,269.71089 -203.53922,276.0448 -248.82875,331.33216 z"
       style="fill:none;fill-opacity:1;fill-rule:evenodd;stroke:#ffffff;stroke-width:4.21303606;stroke-linecap:butt;stroke-linejoin:miter;stroke-miterlimit:4;stroke-dasharray:none;stroke-opacity:1" />
    <path
       sodipodi:nodetypes="cccc"
       id="path4747"
       d="M -66.144367,323.23499 C -28.369567,333.28656 3.6676029,368.01582 -50.759757,388.82204 C -19.138597,388.38953 19.934013,353.71865 -49.140317,297.32406 C -18.203907,323.44438 -28.448517,333.36482 -66.144367,323.23499 z"
       style="fill:none;fill-opacity:1;fill-rule:evenodd;stroke:#ffffff;stroke-width:4.21303606;stroke-linecap:butt;stroke-linejoin:miter;stroke-miterlimit:4;stroke-dasharray:none;stroke-opacity:1" />
    <path
       sodipodi:nodetypes="cccc"
       id="path4749"
       d="M -190.85469,460.82928 C -186.55175,390.08916 -157.37599,419.3948 -153.60773,446.25438 C -164.24731,369.27126 -125.4838,363.48672 -62.919467,392.00336 C -144.37741,339.53746 -184.95869,366.48911 -190.85469,460.82928 z"
       style="fill:none;fill-opacity:1;fill-rule:evenodd;stroke:#ffffff;stroke-width:4.21303606;stroke-linecap:butt;stroke-linejoin:miter;stroke-miterlimit:4;stroke-dasharray:none;stroke-opacity:1" />
    <path
       sodipodi:nodetypes="cccc"
       id="path4751"
       d="M -61.218647,497.78852 C -126.81681,471.57336 -89.173747,457.47417 -60.408927,469.44844 C -85.259457,458.81624 -156.98533,437.65186 -67.696377,396.57394 C -115.55649,401.46667 -170.61739,453.7525 -61.218647,497.78852 z"
       style="fill:none;fill-opacity:1;fill-rule:evenodd;stroke:#ffffff;stroke-width:4.21303606;stroke-linecap:butt;stroke-linejoin:miter;stroke-miterlimit:4;stroke-dasharray:none;stroke-opacity:1" />
    <path
       sodipodi:nodetypes="cccc"
       id="path4753"
       d="M -51.835757,393.38105 C -5.6162671,431.19075 20.119783,420.86436 5.4198529,315.51342 C 11.901973,355.10457 39.321013,381.98233 42.063443,307.49763 C 39.484623,404.01123 17.638583,454.98412 -51.835757,393.38105 z"
       style="fill:none;fill-opacity:1;fill-rule:evenodd;stroke:#ffffff;stroke-width:4.21303606;stroke-linecap:butt;stroke-linejoin:miter;stroke-miterlimit:4;stroke-dasharray:none;stroke-opacity:1" />
    <path
       sodipodi:nodetypes="cccc"
       id="path4755"
       d="M -57.561317,399.10661 C 40.208943,584.26839 66.888383,444.92226 69.546133,376.20437 C 67.316773,430.5188 93.160803,479.2562 123.36641,397.9615 C 94.816423,474.0126 35.837893,596.17186 -57.561317,399.10661 z"
       style="fill:none;fill-opacity:1;fill-rule:evenodd;stroke:#ffffff;stroke-width:4.21303606;stroke-linecap:butt;stroke-linejoin:miter;stroke-miterlimit:4;stroke-dasharray:none;stroke-opacity:1" />
  </g>
  <path
     style="fill:#a40000;fill-rule:evenodd;stroke:#edd400;stroke-width:0.9494341px;stroke-linecap:butt;stroke-linejoin:miter;stroke-opacity:0"
     d="M 11.140742,75.903491 C 69.519341,-13.533778 146.9407,-30.594608 191.03352,128.9488 C 151.09793,41.271652 121.80135,-8.6052275 44.197962,118.18599 C 102.08414,17.398163 54.140182,23.411793 11.140742,75.903491 z"
     id="path4222"
     sodipodi:nodetypes="cccc" />
  <path
     style="fill:#2e3436;fill-rule:evenodd;stroke:none;stroke-width:1px;stroke-linecap:butt;stroke-linejoin:miter;stroke-opacity:1"
     d="M 184.58754,68.215771 C 220.45222,77.759071 250.8694,110.73221 199.19421,130.48634 C 229.21642,130.0757 266.31328,97.157991 200.73176,43.615052 C 230.10384,68.414571 220.37726,77.833371 184.58754,68.215771 z"
     id="path4224"
     sodipodi:nodetypes="cccc" />
  <path
     style="fill:#2e3436;fill-rule:evenodd;stroke:none;stroke-width:1px;stroke-linecap:butt;stroke-linejoin:miter;stroke-opacity:1"
     d="M 66.183311,198.85247 C 70.268661,131.68939 97.969121,159.51317 101.54684,185.01457 C 91.445261,111.92417 128.24866,106.43213 187.64937,133.5068 C 110.31042,83.693881 71.781171,109.2827 66.183311,198.85247 z"
     id="path4226"
     sodipodi:nodetypes="cccc" />
  <path
     style="fill:#204a87;fill-rule:evenodd;stroke:none;stroke-width:1px;stroke-linecap:butt;stroke-linejoin:miter;stroke-opacity:1"
     d="M 189.26418,233.94284 C 126.98305,209.05327 162.72266,195.66702 190.03296,207.0358 C 166.43902,196.94122 98.340031,176.84704 183.114,137.84626 C 137.67398,142.49159 85.397291,192.13354 189.26418,233.94284 z"
     id="path4228"
     sodipodi:nodetypes="cccc" />
  <path
     style="fill:#204a87;fill-rule:evenodd;stroke:none;stroke-width:1px;stroke-linecap:butt;stroke-linejoin:miter;stroke-opacity:1"
     d="M 198.17262,134.81482 C 242.05498,170.71264 266.48966,160.90842 252.53305,60.884641 C 258.68739,98.473831 284.71997,123.99249 287.32372,53.274181 C 284.8753,144.90748 264.13393,193.30288 198.17262,134.81482 z"
     id="path4230"
     sodipodi:nodetypes="cccc" />
  <path
     style="fill:#204a87;fill-rule:evenodd;stroke:none;stroke-width:1px;stroke-linecap:butt;stroke-linejoin:miter;stroke-opacity:1"
     d="M 192.73658,140.25087 C 285.563,316.04976 310.89337,183.74981 313.41672,118.5067 C 311.30009,170.07467 335.8373,216.34762 364.51553,139.16366 C 337.4092,211.36917 281.41297,327.35132 192.73658,140.25087 z"
     id="path4232"
     sodipodi:nodetypes="cccc" />
  <path
     style="fill:url(#linearGradient4855);fill-opacity:1;fill-rule:evenodd;stroke:none;stroke-width:1px;stroke-linecap:butt;stroke-linejoin:miter;stroke-opacity:1"
     d="M 44.477732,38.477372 C 86.716691,-1.8560075 128.93751,2.8477925 159.17824,54.241891 C 121.41803,6.1380527 86.300361,10.887033 44.477732,38.477372 z"
     id="path4781"
     sodipodi:nodetypes="ccc" />
  <path
     style="opacity:0.22775801;fill:#ffffff;fill-opacity:1;fill-rule:evenodd;stroke:none;stroke-width:1px;stroke-linecap:butt;stroke-linejoin:miter;stroke-opacity:1"
     d="M 92.314911,123.27963 C 113.15307,106.16852 133.99124,109.62071 154.8294,118.3872 C 133.99124,111.48695 113.15307,111.36908 92.314911,123.27963 z"
     id="path4811"
     sodipodi:nodetypes="ccc" />
  <path
     style="opacity:0.31672597;fill:#ffffff;fill-opacity:1;fill-rule:evenodd;stroke:none;stroke-width:1px;stroke-linecap:butt;stroke-linejoin:miter;stroke-opacity:1"
     d="M 135.02528,164.80336 C 142.11186,153.96603 161.70295,143.12469 174.52096,140.29874 C 162.17688,144.07325 144.34406,155.73457 135.02528,164.80336 z"
     id="path4813"
     sodipodi:nodetypes="ccc" />
  <text
     xml:space="preserve"
     style="font-size:93.60618591px;font-style:normal;font-variant:normal;font-weight:bold;font-stretch:normal;fill:url(#linearGradient4850);fill-opacity:1;stroke:#ffffff;stroke-width:2;stroke-linecap:butt;stroke-linejoin:miter;stroke-miterlimit:4;stroke-dasharray:none;stroke-opacity:1;font-family:DejaVu Sans;-inkscape-font-specification:DejaVu Sans Bold"
     x="431.58011"
     y="105.65559"
     id="text4815"><tspan
       sodipodi:role="line"
       id="tspan4817"
       x="431.58011"
       y="105.65559"
       style="font-weight:bold;fill:url(#linearGradient4850);fill-opacity:1;stroke:#ffffff;stroke-width:2;stroke-miterlimit:4;stroke-dasharray:none;stroke-opacity:1;-inkscape-font-specification:DejaVu Sans Bold">jsVortex</tspan></text>
  <text
     xml:space="preserve"
     style="font-size:115.80976105px;font-style:normal;font-variant:normal;font-weight:normal;font-stretch:normal;fill:#000000;fill-opacity:1;stroke:none;stroke-width:1px;stroke-linecap:butt;stroke-linejoin:miter;stroke-opacity:1;font-family:DejaVu Sans;-inkscape-font-specification:DejaVu Sans"
     x="476.85291"
     y="177.04535"
     id="text4819"><tspan
       sodipodi:role="line"
       id="tspan4821"
       x="476.85291"
       y="177.04535" /></text>
</svg>
